<?xml version="1.0" encoding="UTF-8"?>
<svg xmlns="http://www.w3.org/2000/svg" xmlns:xlink="http://www.w3.org/1999/xlink" width="32px" height="32px" viewBox="0 0 32 32" version="1.1">
<g id="surface1">
<path style=" stroke:none;fill-rule:nonzero;fill:rgb(0%,0%,0%);fill-opacity:1;" d="M 13.949219 0.136719 C 10.351562 0.636719 7.148438 2.25 4.601562 4.835938 C 2.375 7.101562 0.949219 9.800781 0.300781 12.9375 C -0.0117188 14.476562 -0.0234375 17.511719 0.289062 19 C 0.988281 22.3125 2.460938 25.050781 4.773438 27.335938 C 7.085938 29.613281 9.761719 31.039062 12.9375 31.699219 C 14.476562 32.011719 17.511719 32.023438 19 31.710938 C 22.3125 31.011719 25.050781 29.539062 27.335938 27.226562 C 29.613281 24.914062 31.039062 22.238281 31.699219 19.0625 C 32.011719 17.523438 32.023438 14.488281 31.710938 13 C 30.351562 6.5625 25.601562 1.710938 19.3125 0.363281 C 17.988281 0.0742188 15.210938 -0.0390625 13.949219 0.136719 Z M 14.273438 11.050781 L 14.3125 13.726562 L 16.136719 11.085938 L 17.960938 8.4375 L 18.800781 8.398438 L 19.625 8.363281 L 19.625 23.636719 L 18.800781 23.601562 L 17.960938 23.5625 L 14.3125 18.289062 L 14.273438 20.960938 L 14.25 23.625 L 12.375 23.625 L 12.375 8.375 L 14.25 8.375 Z M 14.273438 11.050781 "/>
<path style=" stroke:none;fill-rule:nonzero;fill:rgb(0%,0%,0%);fill-opacity:1;" d="M 16.1875 13.8125 L 14.699219 16 L 16 17.914062 C 16.710938 18.949219 17.398438 19.949219 17.523438 20.113281 C 17.75 20.398438 17.75 20.300781 17.75 16.011719 C 17.75 13.601562 17.738281 11.625 17.710938 11.625 C 17.6875 11.625 17 12.613281 16.1875 13.8125 Z M 16.1875 13.8125 "/>
</g>
</svg>
