<?xml version="1.0" encoding="UTF-8"?>
<!DOCTYPE svg PUBLIC "-//W3C//DTD SVG 1.1//EN" "http://www.w3.org/Graphics/SVG/1.1/DTD/svg11.dtd">
<svg xmlns="http://www.w3.org/2000/svg" version="1.1" width="64px" height="64px" style="shape-rendering:geometricPrecision; text-rendering:geometricPrecision; image-rendering:optimizeQuality; fill-rule:evenodd; clip-rule:evenodd" xmlns:xlink="http://www.w3.org/1999/xlink">
<g><path style="opacity:1" fill="#252525" d="M -0.5,-0.5 C 20.8333,-0.5 42.1667,-0.5 63.5,-0.5C 63.5,20.8333 63.5,42.1667 63.5,63.5C 42.1667,63.5 20.8333,63.5 -0.5,63.5C -0.5,42.1667 -0.5,20.8333 -0.5,-0.5 Z"/></g>
<g><path style="opacity:1" fill="#e9e9e9" d="M 28.5,16.5 C 28.3354,19.5184 28.502,22.5184 29,25.5C 29.7172,24.9558 30.2172,24.2891 30.5,23.5C 31.8997,20.0999 34.2331,17.7666 37.5,16.5C 37.5,26.1667 37.5,35.8333 37.5,45.5C 34.2331,44.2334 31.8997,41.9001 30.5,38.5C 30.2172,37.7109 29.7172,37.0442 29,36.5C 28.502,39.4816 28.3354,42.4816 28.5,45.5C 27.5,45.5 26.5,45.5 25.5,45.5C 25.5,35.8333 25.5,26.1667 25.5,16.5C 26.5,16.5 27.5,16.5 28.5,16.5 Z"/></g>
<g><path style="opacity:1" fill="#777777" d="M 28.5,16.5 C 29.1667,18.8333 29.8333,21.1667 30.5,23.5C 30.2172,24.2891 29.7172,24.9558 29,25.5C 28.502,22.5184 28.3354,19.5184 28.5,16.5 Z"/></g>
<g><path style="opacity:1" fill="#a6a6a6" d="M 33.5,38.5 C 34.8333,33.5 34.8333,28.5 33.5,23.5C 33.7828,22.7109 34.2828,22.0442 35,21.5C 35.8303,27.5276 35.6636,33.5276 34.5,39.5C 33.8933,39.3764 33.56,39.0431 33.5,38.5 Z"/></g>
<g><path style="opacity:1" fill="#2f2f2f" d="M 33.5,23.5 C 34.8333,28.5 34.8333,33.5 33.5,38.5C 31.9676,35.9426 30.3009,33.4426 28.5,31C 30.3009,28.5574 31.9676,26.0574 33.5,23.5 Z"/></g>
<g><path style="opacity:1" fill="#777777" d="M 30.5,38.5 C 29.8333,40.8333 29.1667,43.1667 28.5,45.5C 28.3354,42.4816 28.502,39.4816 29,36.5C 29.7172,37.0442 30.2172,37.7109 30.5,38.5 Z"/></g>
</svg>
